<?xml version="1.0" standalone="no"?>
<!DOCTYPE svg PUBLIC "-//W3C//DTD SVG 20010904//EN"
 "http://www.w3.org/TR/2001/REC-SVG-20010904/DTD/svg10.dtd">
<svg version="1.0" xmlns="http://www.w3.org/2000/svg"
 width="500.000000pt" height="500.000000pt" viewBox="0 0 500.000000 500.000000"
 preserveAspectRatio="xMidYMid meet">

<g transform="translate(0.000000,500.000000) scale(0.100000,-0.100000)"
fill="#000000" stroke="none">
<path d="M1926 3888 c-19 -31 -231 -413 -419 -758 -85 -157 -228 -415 -316
-575 -89 -159 -161 -298 -161 -307 0 -22 8 -22 344 -8 693 29 990 40 993 36 2
-1 -47 -86 -108 -187 -62 -101 -175 -290 -252 -419 -77 -129 -172 -289 -212
-355 -39 -66 -83 -141 -98 -167 l-27 -47 32 -6 c18 -3 375 -4 793 -3 l759 3
27 40 c15 22 113 189 219 370 106 182 245 420 310 530 399 680 417 712 407
721 -10 10 -251 6 -662 -11 -581 -24 -798 -28 -794 -17 2 5 104 162 227 348
453 687 532 808 532 815 0 4 -10 9 -22 13 -13 3 -368 6 -790 6 l-768 0 -14
-22z"/>
</g>
</svg>
